<?xml version="1.0" encoding="utf-8"?>
<!-- Generator: Adobe Illustrator 25.4.1, SVG Export Plug-In . SVG Version: 6.00 Build 0)  -->
<svg version="1.1" id="Layer_1" xmlns="http://www.w3.org/2000/svg" xmlns:xlink="http://www.w3.org/1999/xlink" x="0px" y="0px"
	 viewBox="0 0 1582.5 327.7" style="enable-background:new 0 0 1582.5 327.7;" xml:space="preserve">
<style type="text/css">
	.st0{fill:#FFFFFF;}
</style>
<g>
	<g>
		<path class="st0" d="M1048.9,107.9h-5.8V84.2h-7.8v-5.1h21.5v5.1h-7.9L1048.9,107.9L1048.9,107.9z M1071.8,107.9l-7.1-21.5h-0.2
			l0.2,4.6v16.9h-5.6V79.2h8.6l6.8,21.3l7.2-21.3h8.2v28.7h-5.8V91.3l0.2-4.8h-0.2l-7.3,21.5H1071.8z"/>
	</g>
</g>
<g>
	<path class="st0" d="M1139,156.6c18.2,0,27.3,7.1,27.3,21.2c0,5.9-1.8,10.9-5.5,15c-3.7,4.1-8.8,6.7-15.5,8v0.6
		c4.8,1.3,8.6,3.7,11.1,7c2.6,3.3,3.9,7.3,3.9,11.9c0,8.9-3.2,15.9-9.6,21c-6.4,5.1-15,7.6-25.7,7.6h-29.2l19.5-92.3L1139,156.6
		L1139,156.6z M1108.5,239.7h16.8c7.6,0,13.5-1.7,17.6-5.1c4.1-3.4,6.1-8.2,6.1-14.4c0-4.9-1.6-8.6-4.7-11.2
		c-3.1-2.6-7.7-3.9-13.5-3.9h-14.9L1108.5,239.7z M1117.8,196.1h15.7c6.6,0,11.8-1.5,15.7-4.6c3.9-3.1,5.9-7.3,5.9-12.6
		c0-4.4-1.4-7.6-4.2-9.8c-2.8-2.2-7.2-3.3-13.2-3.3h-13.3L1117.8,196.1z"/>
	<path class="st0" d="M1193.8,250.1c-7.7,0-13.8-2.3-18.2-6.9c-4.4-4.6-6.6-10.9-6.6-19.1c0-7.9,1.6-15.5,4.7-22.8
		c3.1-7.3,7.3-12.9,12.5-17c5.2-4,10.9-6.1,17.1-6.1c6.4,0,11.3,1.4,14.5,4.2c3.2,2.8,4.9,6.7,4.9,11.7c0,7.6-3.5,13.5-10.5,17.8
		c-7,4.3-17,6.5-30,6.5h-2.1l-0.3,5.1c0,5.5,1.3,9.8,3.9,12.9c2.6,3.1,6.6,4.6,12,4.6c2.7,0,5.4-0.4,8.2-1.1
		c2.8-0.8,6.3-2.1,10.5-4.2v9.2c-4,1.9-7.5,3.1-10.5,3.9C1200.8,249.8,1197.5,250.1,1193.8,250.1z M1202.6,187.4
		c-4.3,0-8.4,2-12.2,5.9c-3.8,4-6.7,9.4-8.7,16.5h0.8c9.6,0,17-1.3,22.1-3.8c5.1-2.5,7.7-6.1,7.7-10.9c0-2.2-0.8-4.1-2.3-5.6
		C1208.3,188.2,1205.9,187.4,1202.6,187.4z"/>
	<path class="st0" d="M1247.1,279.9c-2.9,0-5.5-0.4-7.9-1.3v-8.9c2.7,0.9,5.1,1.4,7.1,1.4c3.2,0,5.7-1.3,7.4-3.9
		c1.7-2.6,3.1-6.3,4.2-11.2l14.3-68.3H1260l0.8-4.2l13-4.2l1.5-6.3c1.9-8.4,4.6-14.4,8.1-17.8c3.4-3.5,8.5-5.2,15.2-5.2
		c1.7,0,3.7,0.2,6.2,0.7c2.4,0.5,4.3,1,5.7,1.6l-2.7,8.1c-3.2-1.2-6.1-1.8-8.7-1.8c-3.7,0-6.5,1-8.4,3.1c-2,2-3.5,5.8-4.8,11.2
		l-1.6,6.8h15l-1.6,8h-15l-14.6,69.3c-1.6,8-4.2,13.8-7.6,17.4C1257.1,278.1,1252.6,279.9,1247.1,279.9z"/>
	<path class="st0" d="M1328,178.8c8,0,14.3,2.4,18.9,7.1c4.6,4.7,6.9,11.2,6.9,19.5c0,7.9-1.5,15.4-4.5,22.4
		c-3,7-7.1,12.5-12.3,16.3c-5.2,3.8-11,5.7-17.6,5.7c-8.1,0-14.4-2.4-19-7.1c-4.6-4.8-6.9-11.3-6.9-19.5c0-8,1.5-15.5,4.6-22.6
		c3.1-7.1,7.2-12.5,12.4-16.2C1315.9,180.7,1321.6,178.8,1328,178.8z M1342.9,204c0-4.8-1.3-8.8-3.9-11.8c-2.6-3-6.2-4.5-10.7-4.5
		c-4.6,0-8.7,1.6-12.3,4.7c-3.6,3.1-6.5,7.4-8.5,13c-2,5.5-3,11.7-3,18.5c0,5.5,1.3,9.8,4,12.8c2.7,3,6.5,4.5,11.5,4.5
		c4.4,0,8.3-1.5,11.8-4.6c3.5-3.1,6.2-7.4,8.2-13.1S1342.9,211.3,1342.9,204z"/>
	<path class="st0" d="M1382.1,179.7l-9.5,43.9c-0.8,3.7-1.1,6.7-1.1,8.8c0,6,3.1,9,9.3,9c3.7,0,7.3-1.3,10.9-3.8
		c3.6-2.5,6.7-6.1,9.5-10.9c2.7-4.7,4.8-10.4,6.2-17l6.3-30h10.5l-14.6,69.2h-8.8l1.4-12.8h-0.8c-4.1,5.3-8.1,8.9-11.8,11
		c-3.7,2.1-7.6,3.1-11.6,3.1c-5.4,0-9.6-1.5-12.7-4.4c-3.1-2.9-4.6-7.1-4.6-12.5c0-2.6,0.5-6.2,1.4-10.9l9.2-42.7L1382.1,179.7
		L1382.1,179.7z"/>
	<path class="st0" d="M1467.7,248.9l9.3-43.7c0.8-4.4,1.3-7.4,1.3-9.1c0-2.7-0.7-4.8-2.2-6.4c-1.5-1.6-3.9-2.4-7.2-2.4
		c-3.7,0-7.4,1.3-11,3.8c-3.6,2.5-6.7,6.1-9.4,10.8c-2.7,4.7-4.8,10.3-6.2,17l-6.4,30h-10.6l14.8-69.2h8.8l-1.4,12.8h0.6
		c4-5.1,7.9-8.8,11.7-10.9c3.8-2.1,7.7-3.2,11.7-3.2c5.3,0,9.6,1.5,12.7,4.4c3.1,2.9,4.6,7,4.6,12.3c0,3.3-0.5,7.1-1.5,11.4l-9,42.4
		L1467.7,248.9L1467.7,248.9z"/>
	<path class="st0" d="M1530.1,178.5c8.2,0,14.1,4,17.7,12h0.6c0.7-6.5,1.7-12.3,2.8-17.3l4.9-22.6h10.5l-20.8,98.2h-8.8l1.4-13.2
		h-0.5c-4.3,5.3-8.2,9-11.9,11.2c-3.7,2.2-7.5,3.3-11.5,3.3c-5.9,0-10.4-2.1-13.7-6.2c-3.3-4.1-4.9-9.9-4.9-17.2
		c0-9,1.5-17.3,4.5-24.8c3-7.5,7.1-13.3,12.3-17.4C1518,180.6,1523.7,178.5,1530.1,178.5z M1518.1,241.4c4,0,8-2,12.2-5.9
		c4.2-3.9,7.5-9,10-15.1c2.5-6.1,3.7-12.4,3.7-18.7c0-4.7-1.1-8.2-3.4-10.7c-2.3-2.4-5.6-3.7-9.9-3.7c-4.3,0-8.2,1.7-11.8,5.2
		c-3.6,3.5-6.6,8.4-8.8,14.6c-2.2,6.3-3.3,12.9-3.3,19.9C1506.8,236.6,1510.6,241.4,1518.1,241.4z"/>
	<path class="st0" d="M1561.3,244.2c0-3.2,0.9-5.8,2.6-7.7c1.7-1.9,4.1-2.9,7-2.9c1.8,0,3.3,0.5,4.4,1.6c1.1,1.1,1.7,2.8,1.7,5
		c0,3-0.8,5.5-2.5,7.5c-1.7,2-4,3-6.8,3c-1.9,0-3.5-0.5-4.6-1.6C1561.9,248,1561.3,246.3,1561.3,244.2z"/>
</g>
<g>
	<path class="st0" d="M434.9,76.8c15,0,26.8,5.5,35.5,16.6c8.7,11,13,26.5,13,46.3c0,19.6-3.5,38.5-10.5,56.6
		c-7,18.1-16.7,32.5-28.9,43.1c-12.2,10.6-25.7,15.9-40.3,15.9c-8.5,0-15.9-1.9-22-5.7c-6.2-3.8-11.9-10.3-17.1-19.4h-1.2
		c-1.2,16.3-3.4,31.5-6.6,45.4l-11.1,52.4h-46.4L351.9,80h35.4l-2.6,26.2h1.4C400.3,86.6,416.5,76.8,434.9,76.8z M416.3,114.3
		c-7,0-13.7,3.5-20.3,10.4c-6.5,6.9-11.8,16.2-15.7,27.7c-4,11.6-5.9,24.3-5.9,38.3c0,8.2,1.9,14.8,5.7,19.7c3.8,4.9,9,7.4,15.7,7.4
		c6.9,0,13.5-3.5,19.7-10.6c6.3-7.1,11.3-16.8,15.2-29.2c3.9-12.4,5.8-24.6,5.8-36.6C436.5,123.4,429.7,114.3,416.3,114.3z"/>
	<path class="st0" d="M611.8,76.8c6.1,0,11,0.6,14.8,1.7l-10.2,44.7c-4.6-1.6-9.8-2.5-15.4-2.5c-11.9,0-22.4,4.7-31.3,14.1
		c-9,9.4-15.4,22.9-19.2,40.4l-16.3,77h-46.4L524.3,80h35.4l-3.2,31.9h0.9C572.5,88.5,590.6,76.8,611.8,76.8z"/>
	<path class="st0" d="M773.7,145c0,21.7-3.6,40.9-10.9,57.6c-7.2,16.7-17.7,29.7-31.3,38.9c-13.7,9.2-29.9,13.8-48.7,13.8
		c-20,0-36-6-48-18.1c-12-12.1-17.9-28.1-17.9-48.1c0-21.9,3.7-41.3,11-58.4c7.3-17.1,17.9-30.3,31.8-39.7
		c13.9-9.4,30.1-14.1,48.7-14.1c20.1,0,36,6.1,47.7,18.2C767.8,107,773.7,123.7,773.7,145z M727,145c0-20.2-7.3-30.3-22-30.3
		c-7.7,0-14.6,3.1-20.7,9.4c-6.1,6.3-11.1,15.5-14.9,27.6c-3.8,12.1-5.8,24.6-5.8,37.4c0,19,7.7,28.5,23.1,28.5
		c7.7,0,14.6-3.2,20.8-9.5c6.2-6.3,11-15.1,14.4-26.3C725.3,170.5,727,158.2,727,145z"/>
	<path class="st0" d="M824.5,252.2h-46.4L829,12.5h46.4L824.5,252.2z"/>
	<path class="st0" d="M1021.8,145c0,21.7-3.6,40.9-10.9,57.6c-7.2,16.7-17.7,29.7-31.3,38.9c-13.7,9.2-29.9,13.8-48.7,13.8
		c-20,0-36-6-48-18.1C871,225.1,865,209,865,189c0-21.9,3.7-41.3,11-58.4c7.3-17.1,17.9-30.3,31.8-39.7
		c13.9-9.4,30.1-14.1,48.7-14.1c20.1,0,36,6.1,47.7,18.2C1016,107,1021.8,123.7,1021.8,145z M975.2,145c0-20.2-7.3-30.3-22-30.3
		c-7.7,0-14.6,3.1-20.7,9.4c-6.1,6.3-11.1,15.5-14.9,27.6c-3.8,12.1-5.8,24.6-5.8,37.4c0,19,7.7,28.5,23.1,28.5
		c7.7,0,14.6-3.2,20.8-9.5c6.2-6.3,11-15.1,14.4-26.3C973.4,170.5,975.2,158.2,975.2,145z"/>
</g>
<path class="st0" d="M136,2.2c-0.8,0-1.5,0-2.3,0c-0.7,0-1.6,0.1-2.3,0.1c-68,0-123,55.8-123,123.1C8.4,238.6,133.7,331,133.7,331
	S259,238.6,259,125.2C259,58.2,203.9,2.2,136,2.2z M133.7,226.9c-53.3,0-96.7-43.4-96.7-96.7c0-53.3,43.4-96.8,96.7-96.8
	c53.3,0,96.7,43.4,96.7,96.8C230.5,183.5,187.1,226.9,133.7,226.9z"/>
<path class="st0" d="M179.3,130.1c0-25.2-20.4-45.6-45.6-45.6c-25.2,0-45.6,20.4-45.6,45.6c0,25.2,20.4,45.6,45.6,45.6
	C158.9,175.7,179.3,155.3,179.3,130.1z"/>
<path class="st0" d="M157.8,104.4c0-5.7-4.7-10.4-10.4-10.4c-5.8,0-10.4,4.7-10.4,10.4c0,5.8,4.7,10.4,10.4,10.4
	C153.2,114.8,157.8,110.1,157.8,104.4z"/>
</svg>
