<?xml version="1.0" encoding="utf-8"?>
<!-- Generator: Adobe Illustrator 15.1.0, SVG Export Plug-In . SVG Version: 6.00 Build 0)  -->
<!DOCTYPE svg PUBLIC "-//W3C//DTD SVG 1.1//EN" "http://www.w3.org/Graphics/SVG/1.1/DTD/svg11.dtd">
<svg version="1.1" id="Layer_1" xmlns="http://www.w3.org/2000/svg" xmlns:xlink="http://www.w3.org/1999/xlink" x="0px" y="0px"
	 width="1582.451px" height="327.714px" viewBox="0 0 1582.451 327.714" enable-background="new 0 0 1582.451 327.714"
	 xml:space="preserve">
<metadata><?xpacket begin="﻿" id="W5M0MpCehiHzreSzNTczkc9d"?>
<x:xmpmeta xmlns:x="adobe:ns:meta/" x:xmptk="Adobe XMP Core 5.0-c060 61.134777, 2010/02/12-17:32:00        ">
   <rdf:RDF xmlns:rdf="http://www.w3.org/1999/02/22-rdf-syntax-ns#">
      <rdf:Description rdf:about=""
            xmlns:xmp="http://ns.adobe.com/xap/1.0/"
            xmlns:xmpGImg="http://ns.adobe.com/xap/1.0/g/img/">
         <xmp:CreatorTool>Adobe Illustrator CS5.1</xmp:CreatorTool>
         <xmp:CreateDate>2014-03-17T15:41-04:00</xmp:CreateDate>
         <xmp:MetadataDate>2014-03-17T15:41:01-04:00</xmp:MetadataDate>
         <xmp:ModifyDate>2014-03-17T15:41:01-04:00</xmp:ModifyDate>
         <xmp:Thumbnails>
            <rdf:Alt>
               <rdf:li rdf:parseType="Resource">
                  <xmpGImg:width>256</xmpGImg:width>
                  <xmpGImg:height>56</xmpGImg:height>
                  <xmpGImg:format>JPEG</xmpGImg:format>
                  <xmpGImg:image>/9j/4AAQSkZJRgABAgEASABIAAD/7QAsUGhvdG9zaG9wIDMuMAA4QklNA+0AAAAAABAASAAAAAEA&#xA;AQBIAAAAAQAB/+4ADkFkb2JlAGTAAAAAAf/bAIQABgQEBAUEBgUFBgkGBQYJCwgGBggLDAoKCwoK&#xA;DBAMDAwMDAwQDA4PEA8ODBMTFBQTExwbGxscHx8fHx8fHx8fHwEHBwcNDA0YEBAYGhURFRofHx8f&#xA;Hx8fHx8fHx8fHx8fHx8fHx8fHx8fHx8fHx8fHx8fHx8fHx8fHx8fHx8fHx8f/8AAEQgAOAEAAwER&#xA;AAIRAQMRAf/EAaIAAAAHAQEBAQEAAAAAAAAAAAQFAwIGAQAHCAkKCwEAAgIDAQEBAQEAAAAAAAAA&#xA;AQACAwQFBgcICQoLEAACAQMDAgQCBgcDBAIGAnMBAgMRBAAFIRIxQVEGE2EicYEUMpGhBxWxQiPB&#xA;UtHhMxZi8CRygvElQzRTkqKyY3PCNUQnk6OzNhdUZHTD0uIIJoMJChgZhJRFRqS0VtNVKBry4/PE&#xA;1OT0ZXWFlaW1xdXl9WZ2hpamtsbW5vY3R1dnd4eXp7fH1+f3OEhYaHiImKi4yNjo+Ck5SVlpeYmZ&#xA;qbnJ2en5KjpKWmp6ipqqusra6voRAAICAQIDBQUEBQYECAMDbQEAAhEDBCESMUEFURNhIgZxgZEy&#xA;obHwFMHR4SNCFVJicvEzJDRDghaSUyWiY7LCB3PSNeJEgxdUkwgJChgZJjZFGidkdFU38qOzwygp&#xA;0+PzhJSktMTU5PRldYWVpbXF1eX1RlZmdoaWprbG1ub2R1dnd4eXp7fH1+f3OEhYaHiImKi4yNjo&#xA;+DlJWWl5iZmpucnZ6fkqOkpaanqKmqq6ytrq+v/aAAwDAQACEQMRAD8A9NazrNppVoZ5zVjtFEPt&#xA;O3gP4nMXV6uGCHFL4DvVgs2r+ZNeuGit+fD/AHxD8KAf5Tbf8Mc5eeq1OqlUbruHL4/tVUHkXXiv&#xA;IiIN14l9/wBVPxyX8iZ6vb5qpC78z+X5lEpkSOuySHnE3sDUj7jXIeLqtId7A89wrNfL/mG21eAl&#xA;R6dzHT1YSfH9pfEZ0mh18dRHbaQ5hU1zPV2KuxV2KuxV2KuxV2KuxV2KuxVgH50+aNQ0DyrC+m3L&#xA;W19dXSRJIlOQRVZ3Ir/qgfTirEfyU8z+btf8zXK6nqk9zY2tqztE5BUyM6qldvDkcVe24q7FXYq7&#xA;FXYq7FXYq7FXYq7FXYq7FXYq7FXnGqSXGv8Amb6tE37vmYYu4VE+09PoJzjtTKWq1PCOV0PcOv6V&#xA;Z3Z2en6TYcI+MNvCpaWVyB0FWd2OdXptNHFEQgP2oJAFlji/mp5SkvjZ28k9yRyLSwwO6AIKs23x&#xA;kACtQubT+T8ojZofF1w7VwmXCLPuDJI5NM1jThJG0d3Y3K1VlPJWHz7EH6QcwM+AEGEx8HPhOMxc&#xA;TYLALiKfy15iVkJaJSHQ/wA8LGhU/q+ecbkjLRajbl94ZvSUZXUOpqrAFT4g52QNiwqndXMVrazX&#xA;Mx4xQI0kh8FQFj+Awq868t/nloetaqli9lJYxFJZZrueRPTjSKNpCW/4GmKpZqn/ADkVo0F40Wna&#xA;VNe2ymn1iSUQFh4qnCQ08K0xVnfkrzzovm7T3utOLRywELdWstBJGW6VoSCrUNCMVS/z/wDmZp3k&#xA;2ayhubSS7kvFdwImVeCoVG/L+bl+GKoS5/OTy1aeWLHWruOWO41FZHtdMXi05WORoubHZVQlOp+i&#xA;uKt/l5+af+MtRu7RNKayjtYvVM5mEtasFVePBKE7nr2xVT82fnV5U0G5ezgD6pexkrKluQI0Yfst&#xA;Kdq/6oOKsdsv+cjtOecLe6JLBBXeSGdZmp48WSL/AIlir1PQ9d0rXdNi1LS51uLSXo42IYdVZTur&#xA;DwOKvF/+cjNU9TVtI0tW2t4JLhx7zPwWv/Io4VTr/nHTTBFoeq6mR8V1cJApP8sCctvpmwKyPzh+&#xA;cPlXy3cPZAvqOoxmktvb04xnwkkPwg+wqR3xVitt/wA5H2LT8bnQpYoK/wB5HcLI9PHg0cY/4bFX&#xA;p+geZ9J8w6SNS0eUXMRqDGfgdZAK+m4P2W/2+mKsUl/N6ytWZb/TZrctFO9tSRH9WWCd7f0RTozy&#xA;RNx+WKs6s7lbqzguVBVZ40kCnqA6hqfjiqtirsVdirsVdirsVdirsVdirz/8v1VtYmZt3WBitfd1&#xA;BOcn2EAcxJ58P6Qqr+c1zcw+T1SEkJPdRxXFO8fF3of9ki53vZcQcu/QOp7akRh26yH6XjOi67qm&#xA;i3hvNNnMFwUaMsACCrdQQaj3+eb7LhjkFSFh5jBnnilxQNF6l+Rt5eS2WrQSsWgjlikjJ3+OUP6n&#xA;/EFzT9rRAMSObv8AsKcjGQPKwnX5jKoewYD4yJQT7DhT9Zzg/aAC4H3/AKHfMp0bl+iLHl9r6vFW&#xA;vjwGb3Sf3MP6o+5WP/mrqn6N8gaxMDR5ofqyU6k3DCI0+SsTmQr5u8n+WL/zNr0GkWbemZ6meY1K&#xA;xxJuzsB1ptQdzTCr0b8zvyj8v+XPKY1XS5JzPbSRpces4YSLIeFaALRuRHTFUm/IW+lt/Pa26k+n&#xA;eW00ci9jwAkB/wCExVT/AD21P6559ltwarp9vDbinSrAzH/k7TFVL8vfyt1bzkhvbi5NnpMB9FJ2&#xA;Bd3K7lIlJAotdzX798VZT5p0iL8rfKl7a6XfPPqPmKRYUnZRG8UECkyFSCd/3lK/5WBWBflz5Gm8&#xA;3699SMjQWMCerezrQsqVoFSu3Jj0r7nthVlf5uflbovljSLTVdHeYRtMLa5ilbnuyMyuDQU+wQfm&#xA;MVRX/OOmq3C6zqmk8ibeW2F2E7B4nWMke7CX8MVYn+b+qfpD8wdUYGsdsyWsY8PRQK4/5GcsVegn&#xA;WpvJX5I6abVvS1TVV/0eQbMpuS0pk/2MVAD40wK8t8ieULrzb5ij01JDFFQzXlxTkUiUjkd+rEkA&#xA;e5wqzz80/wApNB8u+Wk1fSJJw8EiR3KTOHDrJ8IfZVo3KntiqC/5x91W4t/NtzpwYm2vbZmaPt6k&#xA;JDK30KWH04q9wk8peWpShk06FzGxdOS1ozSPKSPfnK7fTgVNIoo4YkijULHGoVFHQKooBiq7FXYq&#xA;7FXYq7FXYq7FXYq7FXnEc50DzZIXB9FZGDgf76k3B+gEHOOjP8rqzf039hVnOp6Zput6VJZ3Siez&#xA;ukG6n6VdT4jqDnZ4cxiROJas2GOSJjLkXmcv5FS/Wj6WrKLQnYvETIB4UDBT+Gbkdrit47+90R7C&#xA;N7S29z0Xy35c03y7pa2FiD6YJeWV6c3c9WYinhT5Zqs+eWSXFJ3Wm00cMOGLDvMl9+m9eit7U8ol&#xA;IghYbgkt8TfKv4DOI7Qz/mc4jDl9I/W5D0SKNIokjQURFCqPYCgzr4xEQAOivKP+cidU9Hy9pmmq&#xA;aNeXLTN7pAlKf8FKDklSf/nHCyia61y9IHqxR28MbbV4yF2f36xriqef85Ca1Hb+WrPSVb9/f3Ak&#xA;Za/7qgFTUf67LTFWH/8AOPelyXHmy71Cn7mytSpb/iyZgFH0qr4VYH5r1P8ASvmfVNQB5LdXUrxd&#xA;/gLngPoWmKvqzypo6aN5b03S0Xj9Vt0SQDvJSsh/2TknArxj/nIyeRvMGlQE/u47RnUf5TyEN/xA&#xA;YVZF/wA46WcSeXNUvRT1ZrwQv48YYlZfxmOBVL/nIvVoU0fS9IBBnmuDdMo6hIkaMV/1jLt8sVSH&#xA;/nHq1Eera1q8nw29nZiKRz0HqOJD+EGFXmU8l1rGtSS05XWo3JanjJPJX9bYq9V/5yCjFnB5Z02L&#xA;a2toZlRRt9gRIPuC4qjv+ccLOIW+t3poZWeCEeIUB2P/AARI+7Aqbf8AOQerQ2/lO106o+sX1yrB&#xA;O/pwqWZv+CZRirCP+cfdPkn843F5T91Z2j1b/LlZVUfSOX3YVfRGBWIebLh7nzLpGkfpCbT7Zo57&#xA;m9lgmMDFQOMY5A/zg4qhdA1NtO1/VrdtXl1HQLC1Waa7uXEximLA8BIPtfBXYd9uuKprpnnizvtQ&#xA;tbRrG7tEvw5sbi4QIkvpjkePxE7jcYqqeeddm0fy/czwRStNIhjimjAIid6KrMSRTdtqV3xVj+gX&#xA;2j+XYobeLSL1vMN1GPrNsv7yeQJ9qZ6uURWYmmKp7/jrSv0Fd6t6UymxkEFzZOoWdJSwTgVJpX4v&#xA;HFUy1bW4dN+orLE7yX9xHaxRpxqGkBPJqn7K03piqUyefbL6xe21tY3d5PYTPFcJborcRH9pySwA&#xA;FagdzQ4qiLrzrpEOl2N9Es10+pD/AEKzhTnPIR9ocQf2P2t8VSWPVx5g87aVbm1mtG0iO4uLq2uF&#xA;4uHdVSMmhII+IFSDiqN896MZ7ddShWskA4zgd467H/Yk5oe29HxR8Qc48/d+xWOaL5o1HSx6SETW&#xA;3X0X6D/VPUZptH2lkwbDePcVZAPzEtuFWsnD+AcEffQfqzbjt+NfQfmqS6z5w1LUY2gQC2tm2ZEN&#xA;WYeDNtt8gM1ur7WyZhwj0x/HVUx8h6Mzytqky/BHVLevdjszfQNszOw9HZ8U8hyVnGdMr54/5yC1&#xA;Q3Pm+2sVaqWNqoZfCSVi7f8ACcMKsZ8reaPNXkd49SsokFvq0JZEuEZoZlikZOXwshqjBu/f3xVA&#xA;avq/mPzlr4nuA97qVyRFBbwqSFUdEjQVoo3P4nFXu+heXh+X/wCWOpzSkfpQ20tzdSKf93snGKMN&#xA;4ISB86nArwjyRpf6U836PYleSTXUXqr/AMVo3OT/AIRThV9eYFeT/nz5NvdUsLXXbCJppdPVo7uJ&#xA;BVjAx5BwBueDVr7GvbFXlPkv8xvMXlFbiPTPRlguSGkguVZ0DgUDrxZGBpt1wqg7u680edvMXqMs&#xA;moapdEKkca7Kg6Ko6Ii1+Xc4q9quvL8fkH8ntVt+atqFxCwu5l/amuuMFE70RWoPlXAryT8qtL/S&#xA;Xn/R4SKpDN9ZevQC3UyivzZQMKvYfzx8m3uu6Fbahp0TT3ulM7NAgq7wygc+IG7FSgIHhXArxbyZ&#xA;5+1/yhcXEmmek6XIAnt7hWaNileLfCyMCvI9DhVR1jWfM/nXXllnD3uoTUjt7aBTxVRuEjQVoo6n&#xA;7ycVfRH5XeRf8JeXzDcFW1S8YS3zLuAQKJGD3CA/eTgVmOKvPbq68rXfnbWZPMElsYLKGC1tY7kg&#xA;1NDJIUU/ysafTiqR30bt5b1s6asyeVmvrZrUkN/civ1ho1ffh6nAiv8AXFWW+W7fyzdazHdR6w+t&#xA;6rBAzQFyOMMVQjFERVVD8dN98VRHnn/SZdD0kCovtQjaVfGGAGSQfqxVL7TWdL0fzr5hk1mZbWWd&#xA;bdrSWUGjQLHQiMgH9rqB1PyxVIrjlLCmsXiG003WtcglZpAFAtYVbgz+HPc/jiqd3mvWesectOa3&#xA;Jk0zSLe5vpLmhEchC+nyQn7So23Lxriq3Rn/AEZ+Wd7qrgLeX0dxdSP3Mk7FYj+K4qhNKbTtB8xa&#xA;Z+l5VtorbRIxbSS7J6zPym4n+bc++KojRvMVgms6/wCZtSDWlorW9jbc0b1ONCd1A5Vb4Wp2xVn7&#xA;KrKVYAqwoQehBwEXsVeb+afLj6ZcGaBS1jKfgPXgT+wf4Zx3afZ5wy4o/Qfs8lSHNUqa+XtBn1a7&#xA;4CqW0dDPL4DwH+UcztBoZZ51/COZ/HVXp9vBDbwpBCoSKMBUUdgM7aEBCIjHYBV+TV8lfmHqf6T8&#xA;761eBuSNdPHG3ikP7pD/AMCgwq+i/LPlPSZPIujaVqtlDdpFaxu8UyK4WWReb8a9DyY7jAqb6P5X&#xA;8u6NU6Vp1vZuwo0kUahyPAv9oj6cVRt5ZWd7bPa3kEdzbSUEkEyLJG1DUclYEHcYqgbLyr5XsblL&#xA;qx0eytbqOvpzw20Uci8gVPFlUEVBIxVNMVdiqQ3/AJC8mahObi70W0knY1eQRKrMfFivHl9OKpjp&#xA;eiaNpUZi0yxgskb7SwRrHyp/NxAr9OKqt/pun6jbm21C1hvLckMYZ41lSo6Hi4I2xVC2Hlny3p1x&#xA;9Z0/SbOzuAComt7eKJ6HqOSKDQ4qmWKpHqfkfyfqczT32j2s07GrzGJVdj/lMtCfpxVG6V5f0PSF&#xA;K6Xp9vZBvtmCNULf6xUVP04qj8VdiqHbTtPaQyNbRGQnkXKKWr41piquVUrxIBUihHamKrILW2gB&#xA;EESRBvtBFC1+dMVSCDSNavPM8WramIYrbT0mi0+CJmdiZTQyuSABVNqDFU/mtbafj60SS8fs81DU&#xA;+VcVXSRxyIUkUOjfaVgCD8wcVWi2tx0iT7Pp/ZH2P5fl7Yq5re3aH0GiRoaAekVBWg6Dj02xVdJD&#xA;FJx9RFfieS8gDQjuK98VWNa2rKVaFGVm9RgVBBcftHbrt1xVVxVZPBDcQvDMgkikHF0boRkJwEwY&#xA;yFgqwuf8v5TqQWGYDT23LneRR/LTv7HOcn2EfE2P7v7VZhY2NrY2yW1sgSJO3cnuSe5zocGCOKIj&#xA;EUFV8tVZcGYQSGAAz8G9INsC1Phr9OKvny2/ILzm97E95LaGBpFNyyzOXKFvjI+Ab0wq+hgAAABQ&#xA;DYAYFdirsVdirsVdirsVdirsVdirsVdirsVdirsVdirsVdirsVdirsVdirsVdirsVf/Z</xmpGImg:image>
               </rdf:li>
            </rdf:Alt>
         </xmp:Thumbnails>
      </rdf:Description>
      <rdf:Description rdf:about=""
            xmlns:xmpTPg="http://ns.adobe.com/xap/1.0/t/pg/"
            xmlns:stDim="http://ns.adobe.com/xap/1.0/sType/Dimensions#"
            xmlns:xmpG="http://ns.adobe.com/xap/1.0/g/">
         <xmpTPg:MaxPageSize rdf:parseType="Resource">
            <stDim:w>1582.451172</stDim:w>
            <stDim:h>327.714355</stDim:h>
            <stDim:unit>Pixels</stDim:unit>
         </xmpTPg:MaxPageSize>
         <xmpTPg:NPages>1</xmpTPg:NPages>
         <xmpTPg:HasVisibleTransparency>False</xmpTPg:HasVisibleTransparency>
         <xmpTPg:HasVisibleOverprint>False</xmpTPg:HasVisibleOverprint>
         <xmpTPg:PlateNames>
            <rdf:Seq>
               <rdf:li>Cyan</rdf:li>
               <rdf:li>Magenta</rdf:li>
               <rdf:li>Yellow</rdf:li>
               <rdf:li>Black</rdf:li>
            </rdf:Seq>
         </xmpTPg:PlateNames>
         <xmpTPg:SwatchGroups>
            <rdf:Seq>
               <rdf:li rdf:parseType="Resource">
                  <xmpG:groupName>Default Swatch Group</xmpG:groupName>
                  <xmpG:groupType>0</xmpG:groupType>
               </rdf:li>
            </rdf:Seq>
         </xmpTPg:SwatchGroups>
      </rdf:Description>
      <rdf:Description rdf:about=""
            xmlns:dc="http://purl.org/dc/elements/1.1/">
         <dc:format>image/svg+xml</dc:format>
      </rdf:Description>
      <rdf:Description rdf:about=""
            xmlns:xmpMM="http://ns.adobe.com/xap/1.0/mm/"
            xmlns:stRef="http://ns.adobe.com/xap/1.0/sType/ResourceRef#"
            xmlns:stEvt="http://ns.adobe.com/xap/1.0/sType/ResourceEvent#">
         <xmpMM:DerivedFrom rdf:parseType="Resource">
            <stRef:instanceID>xmp.iid:F77F117407206811822A8EC6225E48B5</stRef:instanceID>
            <stRef:documentID>xmp.did:F77F117407206811822A8EC6225E48B5</stRef:documentID>
            <stRef:originalDocumentID>xmp.did:F77F117407206811822A8EC6225E48B5</stRef:originalDocumentID>
         </xmpMM:DerivedFrom>
         <xmpMM:DocumentID>xmp.did:F87F117407206811822A8EC6225E48B5</xmpMM:DocumentID>
         <xmpMM:InstanceID>xmp.iid:F87F117407206811822A8EC6225E48B5</xmpMM:InstanceID>
         <xmpMM:OriginalDocumentID>xmp.did:F77F117407206811822A8EC6225E48B5</xmpMM:OriginalDocumentID>
         <xmpMM:History>
            <rdf:Seq>
               <rdf:li rdf:parseType="Resource">
                  <stEvt:action>saved</stEvt:action>
                  <stEvt:instanceID>xmp.iid:F77F117407206811822A8EC6225E48B5</stEvt:instanceID>
                  <stEvt:when>2014-03-17T15:32:26-04:00</stEvt:when>
                  <stEvt:softwareAgent>Adobe Illustrator CS5.1</stEvt:softwareAgent>
                  <stEvt:changed>/</stEvt:changed>
               </rdf:li>
               <rdf:li rdf:parseType="Resource">
                  <stEvt:action>saved</stEvt:action>
                  <stEvt:instanceID>xmp.iid:F87F117407206811822A8EC6225E48B5</stEvt:instanceID>
                  <stEvt:when>2014-03-17T15:41:01-04:00</stEvt:when>
                  <stEvt:softwareAgent>Adobe Illustrator CS5.1</stEvt:softwareAgent>
                  <stEvt:changed>/</stEvt:changed>
               </rdf:li>
            </rdf:Seq>
         </xmpMM:History>
      </rdf:Description>
   </rdf:RDF>
</x:xmpmeta>
                                                                                                    
                                                                                                    
                                                                                                    
                                                                                                    
                                                                                                    
                                                                                                    
                                                                                                    
                                                                                                    
                                                                                                    
                                                                                                    
                                                                                                    
                                                                                                    
                                                                                                    
                                                                                                    
                                                                                                    
                                                                                                    
                                                                                                    
                                                                                                    
                                                                                                    
                                                                                                    
                           
<?xpacket end="w"?>
	</metadata>
<g>
	<g>
		<path fill="#5E5D5F" d="M1048.947,107.905h-5.814V84.247h-7.808v-5.059h21.509v5.059h-7.887V107.905z M1071.85,107.905
			l-7.088-21.468h-0.24l0.16,4.58v16.888h-5.618V79.188h8.565l6.77,21.269l7.249-21.269h8.163v28.717h-5.814V91.256l0.16-4.819
			h-0.239l-7.328,21.468H1071.85z"/>
	</g>
</g>
<g>
	<path fill="#858585" d="M1138.97,156.553c18.186,0,27.276,7.072,27.276,21.215c0,5.938-1.83,10.945-5.49,15.029
		c-3.663,4.082-8.822,6.733-15.473,7.954v0.634c4.842,1.346,8.558,3.672,11.146,6.977c2.59,3.305,3.884,7.271,3.884,11.901
		c0,8.926-3.199,15.924-9.6,20.995c-6.396,5.073-14.963,7.608-25.696,7.608h-29.237l19.513-92.314H1138.97z M1108.474,239.712
		h16.796c7.616,0,13.469-1.694,17.553-5.083c4.082-3.389,6.123-8.178,6.123-14.366c0-4.883-1.566-8.617-4.703-11.208
		c-3.136-2.588-7.65-3.883-13.543-3.883h-14.9L1108.474,239.712z M1117.754,196.08h15.66c6.566,0,11.808-1.535,15.723-4.608
		c3.914-3.072,5.87-7.263,5.87-12.565c0-4.378-1.397-7.65-4.197-9.819c-2.8-2.167-7.209-3.252-13.229-3.252h-13.323L1117.754,196.08
		z"/>
	<path fill="#858585" d="M1193.813,250.129c-7.746,0-13.827-2.293-18.248-6.882c-4.421-4.586-6.63-10.944-6.63-19.069
		c0-7.913,1.567-15.501,4.705-22.762c3.134-7.263,7.292-12.914,12.47-16.953c5.178-4.043,10.882-6.064,17.111-6.064
		c6.441,0,11.279,1.401,14.523,4.2c3.24,2.8,4.861,6.704,4.861,11.713c0,7.576-3.495,13.522-10.482,17.838
		c-6.986,4.315-16.985,6.472-29.992,6.472h-2.084l-0.251,5.052c0,5.516,1.294,9.819,3.882,12.912c2.59,3.096,6.6,4.642,12.029,4.642
		c2.653,0,5.376-0.379,8.177-1.137c2.8-0.758,6.282-2.147,10.451-4.168v9.22c-3.96,1.854-7.452,3.147-10.482,3.884
		C1200.822,249.76,1197.476,250.129,1193.813,250.129z M1202.591,187.43c-4.336,0-8.409,1.979-12.219,5.935
		c-3.811,3.959-6.725,9.449-8.744,16.48h0.757c9.598,0,16.952-1.252,22.068-3.757c5.114-2.505,7.671-6.135,7.671-10.892
		c0-2.231-0.768-4.085-2.306-5.557C1208.282,188.166,1205.874,187.43,1202.591,187.43z"/>
	<path fill="#858585" d="M1247.081,279.934c-2.905,0-5.536-0.443-7.893-1.326v-8.902c2.693,0.925,5.052,1.388,7.071,1.388
		c3.2,0,5.661-1.305,7.387-3.913c1.728-2.612,3.116-6.338,4.168-11.178l14.334-68.319h-12.186l0.82-4.232l13.007-4.167l1.451-6.312
		c1.938-8.42,4.621-14.367,8.051-17.839c3.431-3.472,8.515-5.209,15.249-5.209c1.684,0,3.746,0.243,6.189,0.726
		c2.438,0.484,4.334,1.021,5.683,1.61l-2.716,8.146c-3.199-1.221-6.084-1.831-8.65-1.831c-3.663,0-6.471,1.021-8.43,3.062
		c-1.957,2.042-3.546,5.777-4.767,11.208l-1.579,6.819h15.027l-1.578,8.021h-14.965l-14.649,69.33
		c-1.641,7.955-4.167,13.765-7.577,17.427C1257.121,278.102,1252.638,279.934,1247.081,279.934z"/>
	<path fill="#858585" d="M1327.996,178.779c7.998,0,14.312,2.367,18.944,7.104c4.631,4.734,6.945,11.249,6.945,19.541
		c0,7.915-1.515,15.388-4.547,22.416c-3.03,7.032-7.134,12.462-12.312,16.292c-5.178,3.831-11.028,5.744-17.554,5.744
		c-8.082,0-14.417-2.376-19.006-7.134c-4.588-4.756-6.882-11.262-6.882-19.512c0-7.998,1.535-15.521,4.608-22.572
		c3.072-7.052,7.219-12.46,12.439-16.229C1315.851,180.664,1321.641,178.779,1327.996,178.779z M1342.899,203.973
		c0-4.84-1.315-8.767-3.945-11.775c-2.632-3.011-6.2-4.515-10.704-4.515c-4.589,0-8.704,1.557-12.344,4.672
		c-3.642,3.115-6.462,7.441-8.46,12.976c-2.001,5.535-3,11.692-3,18.469c0,5.517,1.335,9.777,4.01,12.786
		c2.672,3.01,6.512,4.515,11.522,4.515c4.378,0,8.313-1.537,11.808-4.608c3.494-3.073,6.221-7.44,8.178-13.102
		S1342.899,211.256,1342.899,203.973z"/>
	<path fill="#858585" d="M1382.115,179.663l-9.472,43.885c-0.758,3.747-1.137,6.671-1.137,8.775c0,6.021,3.094,9.03,9.282,9.03
		c3.704,0,7.346-1.263,10.925-3.788c3.576-2.525,6.732-6.144,9.471-10.86c2.735-4.712,4.819-10.397,6.25-17.048l6.315-29.994h10.481
		l-14.585,69.204h-8.778l1.39-12.817h-0.759c-4.126,5.263-8.061,8.926-11.806,10.986c-3.748,2.062-7.62,3.094-11.618,3.094
		c-5.39,0-9.621-1.462-12.694-4.386c-3.071-2.928-4.608-7.105-4.608-12.535c0-2.61,0.464-6.23,1.391-10.861l9.219-42.685H1382.115z"
		/>
	<path fill="#858585" d="M1467.657,248.867l9.345-43.694c0.842-4.377,1.263-7.409,1.263-9.093c0-2.651-0.749-4.776-2.241-6.378
		c-1.495-1.598-3.884-2.397-7.168-2.397c-3.747,0-7.397,1.262-10.955,3.788c-3.557,2.524-6.693,6.124-9.407,10.796
		c-2.717,4.673-4.769,10.336-6.156,16.986l-6.377,29.992h-10.609l14.775-69.204h8.777l-1.389,12.818h0.631
		c4.04-5.135,7.945-8.766,11.713-10.893c3.767-2.124,7.673-3.189,11.713-3.189c5.345,0,9.565,1.466,12.66,4.39
		c3.093,2.926,4.643,7.019,4.643,12.281c0,3.324-0.486,7.114-1.454,11.364l-9.029,42.433H1467.657z"/>
	<path fill="#858585" d="M1530.142,178.526c8.166,0,14.082,4,17.743,11.998h0.632c0.715-6.526,1.663-12.293,2.842-17.301
		l4.926-22.606h10.481l-20.838,98.25h-8.775l1.388-13.196h-0.506c-4.253,5.264-8.229,8.988-11.933,11.177
		c-3.705,2.189-7.536,3.282-11.492,3.282c-5.853,0-10.417-2.062-13.702-6.187c-3.283-4.127-4.926-9.851-4.926-17.176
		c0-9.008,1.516-17.259,4.548-24.752c3.029-7.492,7.123-13.28,12.279-17.364C1517.965,180.57,1523.742,178.526,1530.142,178.526z
		 M1518.146,241.353c3.956,0,8.04-1.967,12.25-5.903c4.209-3.935,7.544-8.967,10.008-15.091c2.462-6.125,3.694-12.366,3.694-18.722
		c0-4.673-1.137-8.23-3.411-10.672c-2.273-2.44-5.577-3.661-9.912-3.661c-4.253,0-8.198,1.735-11.84,5.207
		c-3.642,3.475-6.566,8.359-8.778,14.649c-2.207,6.294-3.313,12.914-3.313,19.859
		C1506.843,236.576,1510.609,241.353,1518.146,241.353z"/>
	<path fill="#858585" d="M1561.324,244.194c0-3.24,0.854-5.818,2.558-7.734c1.705-1.916,4.052-2.872,7.041-2.872
		c1.81,0,3.273,0.547,4.388,1.641c1.115,1.096,1.673,2.759,1.673,4.989c0,2.99-0.842,5.482-2.526,7.482
		c-1.683,1.997-3.956,2.998-6.818,2.998c-1.936,0-3.473-0.547-4.609-1.641C1561.894,247.963,1561.324,246.34,1561.324,244.194z"/>
</g>
<g>
	<path fill="#5E5D5F" d="M434.928,76.75c14.989,0,26.822,5.521,35.499,16.556c8.675,11.039,13.013,26.464,13.013,46.279
		c0,19.611-3.518,38.477-10.549,56.597c-7.034,18.121-16.659,32.494-28.876,43.121c-12.218,10.626-25.668,15.938-40.349,15.938
		c-8.523,0-15.863-1.9-22.022-5.698c-6.16-3.796-11.858-10.264-17.094-19.405h-1.233c-1.231,16.325-3.44,31.47-6.622,45.432
		l-11.088,52.363H299.25l52.67-247.948h35.42l-2.618,26.181h1.387C400.277,86.558,416.549,76.75,434.928,76.75z M416.293,114.328
		c-6.983,0-13.733,3.465-20.251,10.395c-6.521,6.931-11.758,16.171-15.709,27.722c-3.954,11.55-5.93,24.308-5.93,38.27
		c0,8.215,1.899,14.785,5.699,19.714c3.798,4.928,9.034,7.391,15.708,7.391c6.878,0,13.45-3.542,19.713-10.626
		c6.261-7.084,11.32-16.81,15.169-29.185c3.851-12.37,5.776-24.563,5.776-36.575C436.469,123.364,429.743,114.328,416.293,114.328z"
		/>
	<path fill="#5E5D5F" d="M611.797,76.75c6.057,0,10.985,0.566,14.785,1.695l-10.165,44.661c-4.621-1.642-9.755-2.464-15.401-2.464
		c-11.911,0-22.357,4.696-31.34,14.091c-8.985,9.395-15.377,22.87-19.174,40.426l-16.325,77.003h-46.355l36.499-172.178h35.421
		l-3.234,31.879h0.925C572.526,88.455,590.646,76.75,611.797,76.75z"/>
	<path fill="#5E5D5F" d="M773.657,144.975c0,21.664-3.62,40.865-10.858,57.599c-7.238,16.735-17.686,29.698-31.339,38.885
		c-13.656,9.189-29.876,13.783-48.666,13.783c-20.02,0-36.013-6.029-47.972-18.095c-11.962-12.062-17.942-28.106-17.942-48.127
		c0-21.868,3.669-41.35,11.012-58.444c7.339-17.095,17.94-30.339,31.801-39.733c13.861-9.395,30.082-14.092,48.666-14.092
		c20.122,0,36.037,6.059,47.741,18.173C767.804,107.039,773.657,123.722,773.657,144.975z M726.993,144.975
		c0-20.225-7.342-30.339-22.023-30.339c-7.7,0-14.606,3.133-20.714,9.394c-6.109,6.264-11.088,15.454-14.938,27.567
		c-3.85,12.116-5.775,24.59-5.775,37.423c0,18.997,7.7,28.492,23.1,28.492c7.701,0,14.631-3.157,20.791-9.473
		c6.161-6.314,10.959-15.094,14.4-26.335C725.272,170.462,726.993,158.22,726.993,144.975z"/>
	<path fill="#5E5D5F" d="M824.494,252.163h-46.355L828.96,12.531h46.355L824.494,252.163z"/>
	<path fill="#5E5D5F" d="M1021.825,144.975c0,21.664-3.619,40.865-10.856,57.599c-7.238,16.735-17.688,29.698-31.34,38.885
		c-13.656,9.189-29.878,13.783-48.666,13.783c-20.021,0-36.012-6.029-47.973-18.095c-11.961-12.062-17.941-28.106-17.941-48.127
		c0-21.868,3.67-41.35,11.012-58.444c7.339-17.095,17.941-30.339,31.802-39.733c13.859-9.395,30.08-14.092,48.665-14.092
		c20.122,0,36.038,6.059,47.742,18.173C1015.974,107.039,1021.825,123.722,1021.825,144.975z M975.162,144.975
		c0-20.225-7.342-30.339-22.022-30.339c-7.7,0-14.605,3.133-20.715,9.394c-6.108,6.264-11.087,15.454-14.938,27.567
		c-3.85,12.116-5.774,24.59-5.774,37.423c0,18.997,7.698,28.492,23.1,28.492c7.7,0,14.632-3.157,20.791-9.473
		c6.16-6.314,10.958-15.094,14.399-26.335C973.442,170.462,975.162,158.22,975.162,144.975z"/>
</g>
<path fill="#B1C935" d="M135.989,2.152c-0.839,0-1.457-0.05-2.277-0.033c-0.686,0-1.576,0.052-2.262,0.052
	C63.481,2.171,8.413,57.988,8.413,125.227c0,113.412,125.333,205.785,125.333,205.785s125.296-92.373,125.296-205.804
	C259.042,58.176,203.945,2.152,135.989,2.152z M133.729,226.894c-53.332,0-96.738-43.402-96.738-96.74
	c0-53.349,43.406-96.753,96.738-96.753c53.335,0,96.736,43.404,96.736,96.753C230.465,183.492,187.064,226.894,133.729,226.894z"/>
<path fill="#1F94CD" d="M179.288,130.137c0-25.168-20.389-45.56-45.559-45.56c-25.167,0-45.562,20.392-45.562,45.56
	c0,25.191,20.395,45.578,45.562,45.578C158.899,175.715,179.288,155.328,179.288,130.137z"/>
<path fill="#FFFFFF" d="M157.817,104.371c0-5.735-4.657-10.408-10.408-10.408c-5.755,0-10.411,4.672-10.411,10.408
	c0,5.774,4.656,10.41,10.411,10.41C153.161,114.781,157.817,110.146,157.817,104.371z"/>
</svg>
